<svg baseProfile="full" xmlns="http://www.w3.org/2000/svg" height="60" width="60"><path opacity=".502" d="M30 1c16.016 0 29 12.984 29 29S46.016 59 30 59 1 46.016 1 30 13.984 1 30 1z"/><path fill="#FFF" d="M30 60C13.431 60 0 46.569 0 30 0 13.431 13.431 0 30 0c16.569 0 30 13.431 30 30 0 16.569-13.431 30-30 30zm0-57C15.088 3 3 15.088 3 30s12.088 27 27 27 27-12.088 27-27S44.912 3 30 3z"/><path fill="#FFF" d="M31.088 10c.282 2.001.322 4.524 2.418 7.047 1.611 1.922 3.425 3.643 4.674 5.205C39.832 24.294 41 26.857 41 29.46c0 4.164-2.014 8.287-3.385 10.57h-.644c.967-2.162 2.901-5.726 2.739-9.529-.08-2.123-.886-4.405-2.255-6.086-1.532-1.963-4.111-3.524-6.367-3.684v22.702c0 1.802-1.088 3.444-2.659 4.645C26.898 49.279 24.883 50 23.11 50c-1.128 0-2.176-.36-2.901-.961-.766-.601-1.209-1.481-1.209-2.522 0-1.642 1.128-3.284 2.659-4.485 1.532-1.241 3.465-2.042 5.077-2.042 1.411 0 2.619.2 3.345.881V10h1.007z"/></svg>